<svg id="Group_46" data-name="Group 46" xmlns="http://www.w3.org/2000/svg" xmlns:xlink="http://www.w3.org/1999/xlink" width="154.094" height="85.853" viewBox="0 0 154.094 85.853">
  <defs>
    <clipPath id="clip-path">
      <rect id="Rectangle_30" data-name="Rectangle 30" width="154.094" height="85.852" fill="none"/>
    </clipPath>
  </defs>
  <rect id="Rectangle_29" data-name="Rectangle 29" width="154.094" height="85.852" fill="#ffdb01"/>
  <path id="Path_69" data-name="Path 69" d="M185.709,63.685V42.259h-8.892V76.946h27.563v-8.58h-18.67Z" transform="translate(-69.775 -16.676)"/>
  <path id="Path_70" data-name="Path 70" d="M32.193,76.98h8.942V64.117H55.673V55.434H41.136V50.728H59.909V42.1H32.193Z" transform="translate(-12.704 -16.613)"/>
  <g id="Group_45" data-name="Group 45">
    <g id="Group_44" data-name="Group 44" clip-path="url(#clip-path)">
      <path id="Path_71" data-name="Path 71" d="M130.973,58.156c-.209.031-.345-.1-.258-.247a.227.227,0,0,1,.183-.108c.172.007.225-.119.1-.226-.087-.073-.093-.1-.027-.122.156-.051.329-.249.285-.328s-.045-.1-.053-.423c0-.1-.044-.174-.107-.188-.114-.027-.1-.639.018-.749.087-.082.075-.153-.027-.157a.057.057,0,0,1-.054-.086c.021-.05-.017-.1-.1-.123s-.118-.072-.094-.127a.153.153,0,0,0-.022-.151c-.1-.1.019-.413.223-.61s.252-.394.128-.441.062-.278.219-.295c.2-.019.212-.2.036-.375-.156-.157-.19-.318-.081-.38a.249.249,0,0,0,.069-.18.248.248,0,0,1,.063-.177c.105-.059-.015-.37-.178-.458-.179-.1-.214-.35-.056-.4s.117-.212-.047-.3c-.117-.059-.144-.117-.131-.28a.563.563,0,0,0-.015-.238,10.523,10.523,0,0,0-1.65-.07c-.189.024-.887.042-3.23.083-.555.01-1.258.034-1.561.054s-1.033.035-1.621.033-1.085,0-1.1.013c-.034.017-.22.021-2.384.053-3.673.054-4.77.041-8.107-.1a77.3,77.3,0,0,0-9.346.041c-.3.02-1.241.078-2.084.128s-1.7.112-1.911.136c-.438.05-1.13.1-2.268.174-.906.056-1.039.1-1.106.35a.488.488,0,0,1-.187.262.932.932,0,0,0-.262.345c-.067.144-.153.32-.189.392-.068.133-.056.2.074.409.061.1.052.13-.054.212a3.37,3.37,0,0,0-.1,1.647.959.959,0,0,1-.081.65,4.075,4.075,0,0,0-.145.483,3.029,3.029,0,0,1-.235.622c-.163.292-.176.564-.075,1.627.075.792.1.864.343,1.228a1.2,1.2,0,0,1,.193.352c-.114.366,1.625.553,5.582.6,1.395.018,2.68.042,2.856.054a9.093,9.093,0,0,0,.949-.022q.629-.044,6.856.191c3.425.129,6.364.229,6.533.221s1.558-.019,3.089-.026,3.1-.025,3.487-.041,1.131-.042,1.653-.057c1.02-.03,1.138-.036,1.654-.077l1.065-.084a2.328,2.328,0,0,0,1.4-.4,2.676,2.676,0,0,1,.8-.232c.937-.176.924-.173.929-.28a.371.371,0,0,1,.146-.2c.142-.109.142-.109-.027-.118-.289-.016-.266-.277.033-.38.145-.051.136-.288-.011-.294a.264.264,0,0,1-.191-.073c-.044-.077.152-.3.26-.291a.611.611,0,0,0,.245-.12c.2-.146,0-.368-.292-.324" transform="translate(-36.839 -20.089)"/>
      <path id="Path_72" data-name="Path 72" d="M132.692,76.715a.433.433,0,0,1,.32-.39c.208-.073-.039-.4-.3-.407-.17,0-.177-.13-.015-.277a.252.252,0,0,0,.046-.389c-.062-.062-.053-.1.045-.17.12-.09.118-.1-.076-.26-.229-.194-.248-.309-.075-.466.206-.186.047-.241-.795-.275a4.845,4.845,0,0,1-.831-.074c-.072-.073.4-.6.544-.6.073,0,.023-.028-.111-.054-.34-.067-8.272-.019-9.132.055-.387.033-1.253.077-1.924.1s-2.1.079-3.176.13c-1.367.064-2.644.081-4.246.058-3.058-.045-6.236-.046-7.025,0l-1.619.09c-.538.03-1.376.112-1.863.183-1.242.179-1.656.234-2.321.306a35.641,35.641,0,0,0-5.1.833c-.649.189-.627.175-.5.318s.042.226-.272.36c-.136.058-.165.117-.2.411a1.541,1.541,0,0,1-.113.459.249.249,0,0,0,0,.277.234.234,0,0,1-.016.289c-.081.114-.077.145.033.3s.11.2.053.3a.894.894,0,0,0-.033.444c.02.173.043.377.051.453a.214.214,0,0,0,.122.172c.143.045.136.25-.011.329A1.418,1.418,0,0,0,94,80.445c.117.1.109.116-.2.448-.261.284-.275.317-.239.558a.674.674,0,0,1-.028.369.328.328,0,0,0-.03.235,2.5,2.5,0,0,1,.055.432c.016.293.327.943.451.943.025,0,.09.1.147.214.071.148.143.214.236.214a1.238,1.238,0,0,1,.334.073,18.978,18.978,0,0,0,3.352-.106c3.173-.2,7.679-.258,11.209-.149,2.012.062,9.653.082,11.149.028,1.885-.067,4.931-.238,5.987-.335a12.3,12.3,0,0,0,2.118-.249,2.248,2.248,0,0,1,.554-.091c.244-.018.581-.056.749-.085s.759-.072,1.313-.093c1.186-.045,1.27-.061,1.295-.234a.354.354,0,0,1,.2-.217c.179-.085.179-.085-.015-.259-.217-.194-.235-.237-.1-.237a.2.2,0,0,0,.1-.355c-.174-.116-.165-.171.038-.216.28-.061.358-.136.262-.251-.069-.083-.064-.111.034-.186s.1-.088-.078-.09c-.266,0-.51-.318-.37-.479a.221.221,0,0,0,.064-.174c-.015-.039.071-.149.191-.245.237-.189.271-.292.118-.351-.073-.028-.09-.085-.063-.22.02-.1.016-.183-.008-.183-.218,0-.317-.716-.107-.768.147-.037.153-.049.066-.145a.384.384,0,0,1-.094-.146.865.865,0,0,0-.175-.225.573.573,0,0,1,.025-.808.659.659,0,0,0,.15-.347" transform="translate(-36.897 -28.932)"/>
    </g>
  </g>
</svg>
