<svg id="Instagram" xmlns="http://www.w3.org/2000/svg" width="48.275" height="48.275" viewBox="0 0 48.275 48.275">
  <path id="Path_3" data-name="Path 3" d="M24.138,4.291c6.437,0,7.241,0,9.655.268a12.439,12.439,0,0,1,4.559.8,9.419,9.419,0,0,1,4.559,4.559,12.439,12.439,0,0,1,.8,4.559c0,2.414.268,3.218.268,9.655s0,7.241-.268,9.655a12.439,12.439,0,0,1-.8,4.559,9.419,9.419,0,0,1-4.559,4.559,12.439,12.439,0,0,1-4.559.8c-2.414,0-3.218.268-9.655.268s-7.241,0-9.655-.268a12.439,12.439,0,0,1-4.559-.8,9.419,9.419,0,0,1-4.559-4.559,12.439,12.439,0,0,1-.8-4.559c0-2.414-.268-3.218-.268-9.655s0-7.241.268-9.655a12.439,12.439,0,0,1,.8-4.559A9.632,9.632,0,0,1,7.241,7.241,4.534,4.534,0,0,1,9.923,5.364a12.439,12.439,0,0,1,4.559-.8c2.414-.268,3.218-.268,9.655-.268m0-4.291C17.7,0,16.628,0,14.214.268a16.557,16.557,0,0,0-5.9,1.073A10.5,10.5,0,0,0,4.023,4.023,10.5,10.5,0,0,0,1.341,8.314a12.22,12.22,0,0,0-1.073,5.9C0,16.628,0,17.7,0,24.138s0,7.51.268,9.923a16.557,16.557,0,0,0,1.073,5.9,10.5,10.5,0,0,0,2.682,4.291,10.5,10.5,0,0,0,4.291,2.682,16.557,16.557,0,0,0,5.9,1.073c2.414.268,3.487.268,9.923.268s7.509,0,9.923-.268a16.557,16.557,0,0,0,5.9-1.073,11.252,11.252,0,0,0,6.973-6.973,16.557,16.557,0,0,0,1.073-5.9c0-2.682.268-3.487.268-9.923s0-7.51-.268-9.923a16.557,16.557,0,0,0-1.073-5.9,10.5,10.5,0,0,0-2.682-4.291,10.5,10.5,0,0,0-4.291-2.682,16.557,16.557,0,0,0-5.9-1.073C31.647,0,30.574,0,24.138,0m0,11.8A12.138,12.138,0,0,0,11.8,24.138,12.337,12.337,0,1,0,24.138,11.8m0,20.383a7.9,7.9,0,0,1-8.046-8.046,7.9,7.9,0,0,1,8.046-8.046,7.9,7.9,0,0,1,8.046,8.046,7.9,7.9,0,0,1-8.046,8.046M37.011,8.314a2.95,2.95,0,1,0,2.95,2.95,2.976,2.976,0,0,0-2.95-2.95" fill="#fff"/>
</svg>
