<svg xmlns="http://www.w3.org/2000/svg" xmlns:xlink="http://www.w3.org/1999/xlink" width="291.054" height="25.205" viewBox="0 0 291.054 25.205">
  <defs>
    <clipPath id="clip-path">
      <rect id="Rectangle_28" data-name="Rectangle 28" width="291.054" height="25.205" transform="translate(0 0)" fill="none"/>
    </clipPath>
  </defs>
  <g id="Group_36" data-name="Group 36" transform="translate(0 0)">
    <g id="Group_42" data-name="Group 42" transform="translate(0 0)" clip-path="url(#clip-path)">
      <path id="Path_56" data-name="Path 56" d="M80.889,18.827A8.287,8.287,0,1,1,72.6,10.541a8.287,8.287,0,0,1,8.287,8.286" transform="translate(-37.981 -6.225)" fill="#fff"/>
      <path id="Path_57" data-name="Path 57" d="M0,25.512H6.105V16.729h9.926V10.8H6.105V7.588H18.923V1.7H0Z" transform="translate(0 -1.002)"/>
      <path id="Path_58" data-name="Path 58" d="M147.112,9.73a7.816,7.816,0,0,0-8-8.033H126.439V25.512h6.034V17.658h3.107c.536.928,4.034,7.14,4.462,7.854h7.534c-.5-.785-4.57-7.712-5.141-8.676a7.653,7.653,0,0,0,4.677-7.106m-8.57,2.143h-6.07V7.553h6.07a2.2,2.2,0,0,1,2.464,2.177,2.253,2.253,0,0,1-2.464,2.143" transform="translate(-74.668 -1.002)"/>
      <path id="Path_59" data-name="Path 59" d="M188.908,7.588h5.821V25.512h6.142V7.588h5.819V1.7H188.908Z" transform="translate(-111.559 -1.002)"/>
      <path id="Path_60" data-name="Path 60" d="M255.789,16.348a3.251,3.251,0,0,1-6.5,0V1.173h-6.106V15.92a9.3,9.3,0,1,0,18.6,0V1.173h-6Z" transform="translate(-143.611 -0.693)"/>
      <path id="Path_61" data-name="Path 61" d="M312.024,12.2c-1.178-1-12.068-10.783-13.033-11.64V24.843h6V13.668c1,.892,11.818,10.6,13,11.639V1.028h-5.963Z" transform="translate(-176.567 -0.333)"/>
      <path id="Path_62" data-name="Path 62" d="M361.819,1.7c-.143.464-8.391,23.316-8.57,23.815h6.5c.107-.321,1.285-3.677,1.392-4h7.819c.144.392,1.286,3.5,1.464,4h6.57c-.214-.57-8.819-23.422-8.962-23.815Zm1.357,13.961c.107-.321,1.607-4.677,1.75-5.106.143.392,1.749,4.82,1.857,5.106Z" transform="translate(-208.609 -1.002)"/>
      <path id="Path_63" data-name="Path 63" d="M66.391.024A12.593,12.593,0,1,0,78.984,12.617,12.593,12.593,0,0,0,66.391.024m.061,19.2a6.543,6.543,0,1,1,6.543-6.543,6.544,6.544,0,0,1-6.543,6.543" transform="translate(-31.77 -0.014)"/>
      <path id="Path_64" data-name="Path 64" d="M517.09,16.487V1.858h-6.072V25.541h18.819V19.683H517.09Z" transform="translate(-301.779 -1.097)"/>
      <rect id="Rectangle_27" data-name="Rectangle 27" width="6.108" height="23.684" transform="translate(232.5 0.761)"/>
      <path id="Path_65" data-name="Path 65" d="M667.86,1.857h-6.178c-.142.461-8.345,23.188-8.523,23.684h6.464c.106-.319,1.278-3.656,1.384-3.976h7.776c.143.39,1.278,3.48,1.456,3.976h6.534C676.56,24.974,668,2.248,667.86,1.857m-4.829,13.884c.107-.319,1.6-4.651,1.74-5.077.143.39,1.739,4.793,1.847,5.077Z" transform="translate(-385.719 -1.097)"/>
      <path id="Path_66" data-name="Path 66" d="M614.778,15.91h0v-6.5H608.85l-2.741,2.74V15.91h2.168v3.3h-2.135a6.545,6.545,0,0,1,.061-13.09,6.333,6.333,0,0,1,2.6.574l4.461-4.461A12.593,12.593,0,1,0,606.109,25.2h8.673v-6h0Z" transform="translate(-350.511 0)"/>
      <path id="Path_67" data-name="Path 67" d="M452.739,15.264c-.145.022-.24-.069-.179-.172a.16.16,0,0,1,.127-.075c.119,0,.156-.082.067-.157-.061-.05-.065-.07-.019-.084.108-.035.229-.173.2-.228s-.031-.072-.036-.294c0-.07-.03-.12-.075-.131-.079-.019-.069-.444.012-.521.061-.057.052-.106-.018-.109a.039.039,0,0,1-.038-.059c.015-.035-.011-.068-.067-.086s-.082-.05-.065-.088a.106.106,0,0,0-.016-.105c-.065-.072.013-.287.156-.424s.175-.274.089-.307.043-.194.152-.2c.136-.014.148-.138.025-.261s-.132-.221-.056-.264a.173.173,0,0,0,.048-.126.172.172,0,0,1,.044-.123c.073-.041-.011-.257-.124-.318s-.149-.243-.038-.28.081-.147-.033-.205c-.081-.041-.1-.081-.091-.194a.385.385,0,0,0-.01-.165,7.289,7.289,0,0,0-1.147-.048c-.132.017-.616.029-2.245.057-.386.007-.874.024-1.085.038s-.718.024-1.127.023-.754,0-.767.009-.153.015-1.657.037c-2.552.038-3.315.028-5.635-.068a53.7,53.7,0,0,0-6.5.029l-1.449.089c-.586.035-1.183.078-1.328.094-.3.035-.785.072-1.576.121-.63.039-.723.068-.769.243a.342.342,0,0,1-.13.182.649.649,0,0,0-.183.24c-.046.1-.106.222-.131.272-.047.092-.039.142.052.284.042.066.036.09-.038.147a2.341,2.341,0,0,0-.073,1.145.668.668,0,0,1-.057.451,2.8,2.8,0,0,0-.1.336,2.1,2.1,0,0,1-.163.432c-.113.2-.122.392-.052,1.131.052.551.066.6.238.854a.842.842,0,0,1,.134.245c-.08.254,1.129.384,3.88.418.969.012,1.863.029,1.985.037a6.282,6.282,0,0,0,.659-.015q.437-.031,4.765.132c2.381.09,4.424.159,4.541.154s1.083-.013,2.146-.018,2.155-.018,2.424-.028.786-.029,1.149-.04c.709-.02.791-.025,1.15-.054l.74-.059a1.614,1.614,0,0,0,.974-.28,1.862,1.862,0,0,1,.559-.161c.651-.123.642-.12.646-.194a.253.253,0,0,1,.1-.14c.1-.076.1-.076-.019-.082-.2-.011-.185-.192.023-.265.1-.035.094-.2-.008-.2a.181.181,0,0,1-.133-.051c-.03-.054.106-.206.181-.2a.427.427,0,0,0,.17-.083c.14-.1,0-.256-.2-.226" transform="translate(-251.921 -6.039)"/>
      <path id="Path_68" data-name="Path 68" d="M453.982,35.616a.3.3,0,0,1,.222-.271c.145-.051-.027-.28-.211-.283-.118,0-.123-.09-.011-.192a.175.175,0,0,0,.032-.27c-.043-.043-.036-.066.031-.118.083-.063.082-.066-.053-.181-.16-.135-.172-.215-.052-.324.142-.129.033-.167-.553-.191a3.371,3.371,0,0,1-.577-.052c-.05-.05.278-.414.378-.419.051,0,.016-.02-.077-.038-.236-.047-5.75-.013-6.347.038-.269.023-.87.054-1.337.068s-1.461.055-2.208.09c-.95.045-1.838.057-2.951.041-2.125-.032-4.334-.033-4.883,0l-1.125.063c-.373.021-.957.078-1.295.127-.863.125-1.152.163-1.614.213a24.685,24.685,0,0,0-3.545.579c-.451.131-.436.122-.346.221s.029.157-.189.25c-.094.04-.115.082-.138.286a1.082,1.082,0,0,1-.078.319.172.172,0,0,0,0,.192.162.162,0,0,1-.011.2c-.056.079-.053.1.023.208s.077.136.037.21a.632.632,0,0,0-.023.309c.014.12.03.262.036.314a.148.148,0,0,0,.085.12c.1.032.095.174-.008.228a.986.986,0,0,0-.1.857c.081.068.075.081-.136.311-.181.2-.191.22-.166.388a.469.469,0,0,1-.02.257.229.229,0,0,0-.021.163,1.774,1.774,0,0,1,.038.3c.011.2.227.655.313.655.017,0,.063.067.1.149.049.1.1.149.164.149a.863.863,0,0,1,.233.05,13.192,13.192,0,0,0,2.329-.074c2.205-.138,5.337-.18,7.791-.1,1.4.043,6.709.057,7.749.019,1.31-.047,3.427-.165,4.161-.232a8.6,8.6,0,0,0,1.472-.174,1.578,1.578,0,0,1,.385-.063c.169-.012.4-.039.521-.059s.528-.05.913-.065c.824-.032.882-.042.9-.163a.245.245,0,0,1,.138-.15c.124-.06.124-.06-.011-.181-.151-.135-.164-.164-.073-.164a.138.138,0,0,0,.071-.247c-.121-.081-.115-.119.026-.149.195-.043.249-.095.182-.175-.048-.058-.044-.077.024-.129s.072-.061-.055-.062c-.185,0-.354-.221-.257-.333A.153.153,0,0,0,453.91,38c-.01-.027.05-.1.133-.17.165-.131.188-.2.082-.244-.051-.02-.062-.059-.043-.153.014-.07.011-.127-.006-.127-.152,0-.221-.5-.074-.534.1-.026.106-.034.046-.1a.269.269,0,0,1-.066-.1.609.609,0,0,0-.122-.156.4.4,0,0,1,.017-.561.458.458,0,0,0,.1-.242" transform="translate(-252.011 -19.638)"/>
    </g>
  </g>
</svg>
