<svg id="Search" xmlns="http://www.w3.org/2000/svg" width="40" height="40" viewBox="0 0 40 40">
  <rect id="Rectangle_176" data-name="Rectangle 176" width="40" height="40" fill="none"/>
  <path id="Path_99" data-name="Path 99" d="M39.406,35.936l-8.179-8.179A16.969,16.969,0,0,0,34.7,17.348,17.242,17.242,0,0,0,17.348,0,17.242,17.242,0,0,0,0,17.348,17.242,17.242,0,0,0,17.348,34.7a16.969,16.969,0,0,0,10.409-3.47l8.179,8.179ZM4.957,17.348A12.271,12.271,0,0,1,17.348,4.957,12.271,12.271,0,0,1,29.74,17.348,12.271,12.271,0,0,1,17.348,29.74,12.271,12.271,0,0,1,4.957,17.348Z"/>
</svg>
