<svg id="Group_15" data-name="Group 15" xmlns="http://www.w3.org/2000/svg" xmlns:xlink="http://www.w3.org/1999/xlink" width="68.52" height="48.275" viewBox="0 0 68.52 48.275">
  <defs>
    <clipPath id="clip-path">
      <rect id="Rectangle_12" data-name="Rectangle 12" width="68.52" height="48.275" fill="#fff"/>
    </clipPath>
  </defs>
  <g id="Group_14" data-name="Group 14" clip-path="url(#clip-path)">
    <path id="Path_30" data-name="Path 30" d="M67.088,7.538a8.61,8.61,0,0,0-6.058-6.1C55.687,0,34.26,0,34.26,0S12.833,0,7.49,1.441a8.61,8.61,0,0,0-6.058,6.1C0,12.916,0,24.138,0,24.138s0,11.221,1.432,16.6a8.61,8.61,0,0,0,6.058,6.1c5.344,1.441,26.77,1.441,26.77,1.441s21.427,0,26.77-1.441a8.61,8.61,0,0,0,6.058-6.1c1.432-5.378,1.432-16.6,1.432-16.6s0-11.221-1.432-16.6M44.2,24.544,27.7,34.029a.468.468,0,0,1-.7-.406V14.653a.468.468,0,0,1,.7-.406l16.5,9.485a.468.468,0,0,1,0,.812" fill="#fff"/>
  </g>
</svg>
