<svg data-name="Group 46" xmlns="http://www.w3.org/2000/svg" width="154.09" height="85.85" viewBox="0 0 154.09 85.85"><defs><clipPath id="a"><path data-name="Rectangle 30" fill="none" d="M0 0h154.09v85.85H0z"/></clipPath></defs><path data-name="Rectangle 29" fill="#ffdb01" d="M0 0h154.09v85.85H0z"/><path data-name="Path 69" d="M115.934 47.009V25.583h-8.892V60.27h27.563v-8.58h-18.67z"/><path data-name="Path 70" d="M19.489 60.367h8.942V47.504h14.538v-8.683H28.432v-4.706h18.773v-8.628H19.489z"/><g data-name="Group 45"><g data-name="Group 44" clip-path="url(#a)"><path data-name="Path 71" d="M94.134 38.067c-.209.031-.345-.1-.258-.247a.227.227 0 01.183-.108c.172.007.225-.119.1-.226-.087-.073-.093-.1-.027-.122.156-.051.329-.249.285-.328s-.045-.1-.053-.423c0-.1-.044-.174-.107-.188-.114-.027-.1-.639.018-.749.087-.082.075-.153-.027-.157a.057.057 0 01-.054-.086c.021-.05-.017-.1-.1-.123s-.118-.072-.094-.127a.153.153 0 00-.022-.151c-.1-.1.019-.413.223-.61s.252-.394.128-.441.062-.278.219-.295c.2-.019.212-.2.036-.375-.156-.157-.19-.318-.081-.38a.249.249 0 00.069-.18.248.248 0 01.063-.177c.105-.059-.015-.37-.178-.458-.179-.1-.214-.35-.056-.4s.117-.212-.047-.3c-.117-.059-.144-.117-.131-.28a.563.563 0 00-.015-.238 10.523 10.523 0 00-1.65-.07c-.189.024-.887.042-3.23.083-.555.01-1.258.034-1.561.054s-1.033.035-1.621.033-1.085 0-1.1.013c-.034.017-.22.021-2.384.053-3.673.054-4.77.041-8.107-.1a77.3 77.3 0 00-9.346.041c-.3.02-1.241.078-2.084.128s-1.7.112-1.911.136c-.438.05-1.13.1-2.268.174-.906.056-1.039.1-1.106.35a.488.488 0 01-.187.262.932.932 0 00-.262.345c-.067.144-.153.32-.189.392-.068.133-.056.2.074.409.061.1.052.13-.054.212a3.37 3.37 0 00-.1 1.647.959.959 0 01-.081.65 4.075 4.075 0 00-.145.483 3.029 3.029 0 01-.235.622c-.163.292-.176.564-.075 1.627.075.792.1.864.343 1.228a1.2 1.2 0 01.193.352c-.114.366 1.625.553 5.582.6 1.395.018 2.68.042 2.856.054a9.093 9.093 0 00.949-.022q.629-.044 6.856.191c3.425.129 6.364.229 6.533.221s1.558-.019 3.089-.026 3.1-.025 3.487-.041 1.131-.042 1.653-.057c1.02-.03 1.138-.036 1.654-.077l1.065-.084a2.328 2.328 0 001.4-.4 2.676 2.676 0 01.8-.232c.937-.176.924-.173.929-.28a.371.371 0 01.146-.2c.142-.109.142-.109-.027-.118-.289-.016-.266-.277.033-.38.145-.051.136-.288-.011-.294a.264.264 0 01-.191-.073c-.044-.077.152-.3.26-.291a.611.611 0 00.245-.12c.2-.146 0-.368-.292-.324"/><path data-name="Path 72" d="M95.795 47.783a.433.433 0 01.32-.39c.208-.073-.039-.4-.3-.407-.17 0-.177-.13-.015-.277a.252.252 0 00.046-.389c-.062-.062-.053-.1.045-.17.12-.09.118-.1-.076-.26-.229-.194-.248-.309-.075-.466.206-.186.047-.241-.795-.275a4.845 4.845 0 01-.831-.074c-.072-.073.4-.6.544-.6.073 0 .023-.028-.111-.054-.34-.067-8.272-.019-9.132.055-.387.033-1.253.077-1.924.1s-2.1.079-3.176.13a66.539 66.539 0 01-4.246.058c-3.058-.045-6.236-.046-7.025 0l-1.619.09a25.51 25.51 0 00-1.863.183 57.486 57.486 0 01-2.321.306 35.641 35.641 0 00-5.1.833c-.649.189-.627.175-.5.318s.042.226-.272.36c-.136.058-.165.117-.2.411a1.541 1.541 0 01-.113.459.249.249 0 000 .277.234.234 0 01-.016.289c-.081.114-.077.145.033.3s.11.2.053.3a.894.894 0 00-.033.444l.051.453a.214.214 0 00.122.172c.143.045.136.25-.011.329a1.418 1.418 0 00-.152 1.225c.117.1.109.116-.2.448-.261.284-.275.317-.239.558a.674.674 0 01-.028.369.328.328 0 00-.03.235 2.5 2.5 0 01.055.432c.016.293.327.943.451.943.025 0 .09.1.147.214.071.148.143.214.236.214a1.238 1.238 0 01.334.073 18.978 18.978 0 003.352-.106c3.173-.2 7.679-.258 11.209-.149 2.012.062 9.653.082 11.149.028 1.885-.067 4.931-.238 5.987-.335a12.3 12.3 0 002.118-.249 2.248 2.248 0 01.554-.091c.244-.018.581-.056.749-.085s.759-.072 1.313-.093c1.186-.045 1.27-.061 1.295-.234a.354.354 0 01.2-.217c.179-.085.179-.085-.015-.259-.217-.194-.235-.237-.1-.237a.2.2 0 00.1-.355c-.174-.116-.165-.171.038-.216.28-.061.358-.136.262-.251-.069-.083-.064-.111.034-.186s.1-.088-.078-.09c-.266 0-.51-.318-.37-.479a.221.221 0 00.064-.174c-.015-.039.071-.149.191-.245.237-.189.271-.292.118-.351-.073-.028-.09-.085-.063-.22.02-.1.016-.183-.008-.183-.218 0-.317-.716-.107-.768.147-.037.153-.049.066-.145a.384.384 0 01-.094-.146.865.865 0 00-.175-.225.573.573 0 01.025-.808.659.659 0 00.15-.347"/></g></g></svg>