<svg xmlns="http://www.w3.org/2000/svg" width="390.38" height="96" viewBox="0 0 390.38 96"><path fill="#FFF" d="M108.968 47.915c0 8.463-6.86 15.322-15.323 15.322-8.462 0-15.323-6.859-15.323-15.322 0-8.464 6.861-15.323 15.323-15.323 8.463 0 15.323 6.859 15.323 15.323"/><path d="M29.503 68.151V27.553h32.26v10.043H39.911v5.478h16.922v10.105H39.911v14.972zM139.902 44.9h10.348c2.192 0 4.201-1.339 4.201-3.652 0-2.435-1.887-3.713-4.201-3.713h-10.348V44.9zm-10.286 23.251V27.553h21.608c7.367 0 13.635 5.417 13.635 13.695 0 5.601-3.652 10.592-7.973 12.114.973 1.644 7.913 13.451 8.764 14.789h-12.844c-.729-1.217-6.694-11.807-7.607-13.391h-5.297v13.391h-10.286zM187.152 68.151V37.596h-9.923V27.553h30.314v10.043h-9.921v30.555zM222.798 27.553h10.409v25.87c0 2.678 2.191 5.355 5.539 5.355 3.043 0 5.539-2.313 5.539-5.355v-25.87h10.227v25.14c0 9.13-6.878 16.189-15.766 16.189-9.009 0-15.948-6.877-15.948-16.189v-25.14zM274.161 68.151v-41.39c1.646 1.461 20.21 18.139 22.218 19.844V27.553h10.166v41.392c-2.009-1.766-20.453-18.322-22.156-19.843v19.05h-10.228zM339.923 42.648c-.243.73-2.8 8.157-2.982 8.704h6.147c-.183-.486-2.922-8.034-3.165-8.704m-8.825 25.503h-11.079c.305-.852 14.365-39.808 14.609-40.599h10.591c.243.67 14.913 39.626 15.278 40.599h-11.2c-.303-.852-2.252-6.146-2.496-6.816h-13.33c-.183.549-2.191 6.269-2.373 6.816M115.327 47.669c0-11.856-9.612-21.468-21.469-21.468-11.855 0-21.468 9.611-21.468 21.468s9.613 21.469 21.468 21.469c11.857 0 21.469-9.612 21.469-21.469m-10.21.103c0 6.16-4.994 11.154-11.154 11.154s-11.156-4.994-11.156-11.154 4.996-11.154 11.156-11.154 11.154 4.994 11.154 11.154"/></svg>