<svg fill="#228900" xmlns="http://www.w3.org/2000/svg" xmlns:xlink="http://www.w3.org/1999/xlink" viewBox="0 0 90 20"><defs><path id="a" d="M460.05 104c0 1.17-.09 2.9-.36 4.52-.67 3.9-1.7 4.78-7.22 5.22-2 .15-4.18.23-5.94.26v-2.57c.84-.03 1.77-.08 2.64-.17 3.08-.33 3.65-.98 4.03-3.89a28 28 0 000-6.74c-.38-2.9-.95-3.56-4.03-3.89-.87-.09-1.8-.14-2.64-.17V94c1.76.03 3.93.1 5.94.26 5.52.44 6.55 1.32 7.22 5.22.27 1.62.36 3.35.36 4.52zM443.5 94v2.57c-.83.03-1.76.08-2.64.17-3.07.33-3.65.98-4.02 3.89a28.05 28.05 0 000 6.74c.37 2.9.95 3.56 4.02 3.89.88.09 1.8.14 2.64.17V114c-1.76-.03-3.93-.1-5.93-.26-5.52-.44-6.55-1.32-7.22-5.22a28.22 28.22 0 010-9.04c.67-3.9 1.7-4.78 7.22-5.22 2-.16 4.17-.23 5.93-.26zm27.24 4.28c1.45 0 2.95.28 4.17.8l-.52 2.4a14.45 14.45 0 00-3.77-.62c-1.18 0-1.44.32-1.44.71 0 1.17 5.53.18 5.53 4.08 0 2.7-2.49 3.75-5.19 3.75a12.1 12.1 0 01-4.57-.8l.52-2.4c1.69.48 2.97.62 4.17.62 1.12 0 1.44-.22 1.44-.71 0-1.17-5.53-.18-5.53-4.08 0-2.86 2.47-3.75 5.2-3.75zm9.94.3l.12.86a5.31 5.31 0 013.23-1.16c2.26 0 4.3 1.6 4.3 4.85 0 4.22-3.06 6.27-5.7 6.27-1.09 0-1.99-.2-2.83-.67l-.44 4.1h-3.6l1.52-14.26zm-.58 7.43c.52.33 1.12.51 1.7.51 1.4 0 2.71-.93 2.71-3.05 0-1.6-.96-2.31-2.14-2.31a3.7 3.7 0 00-1.8.51zm21.63-2.74c0 3.53-2.65 6.13-6.64 6.13-3.4 0-5.43-2.07-5.43-4.99 0-3.53 2.67-6.13 6.64-6.13 3.4 0 5.43 2.07 5.43 4.99zm-6.34 3.37c1.39 0 2.5-1.34 2.5-3.15 0-1.44-.75-2.45-1.9-2.45-1.38 0-2.5 1.34-2.5 3.15 0 1.44.76 2.45 1.9 2.45zm15.2-5.1c-1.43 0-2.33.49-3.33 1.6l-.62 5.96h-3.61l1.12-10.53h3.4l.09 1.56c.72-1.12 2.46-1.95 4.25-1.83l-.36 3.3a8.23 8.23 0 00-.95-.07zm9.4-2.97l-.28 2.57h-3l-.45 4.24c-.12 1.2 1.29 1.3 2.97 1.02v2.5c-3.13.97-7.04.74-6.63-2.95l1.08-9.9h3.58l-.28 2.52z"/></defs><use xlink:href="#a" transform="translate(-430 -94)"/></svg>