<svg xmlns="http://www.w3.org/2000/svg" width="40" height="40" viewBox="0 0 40 40"><path data-name="Rectangle 176" fill="none" d="M0 0h40v40H0z"/><path data-name="Path 99" d="M39.406 35.936l-8.179-8.179A16.969 16.969 0 0034.7 17.348 17.242 17.242 0 0017.348 0 17.242 17.242 0 000 17.348 17.242 17.242 0 0017.348 34.7a16.969 16.969 0 0010.409-3.47l8.179 8.179zM4.957 17.348A12.271 12.271 0 0117.348 4.957 12.271 12.271 0 0129.74 17.348 12.271 12.271 0 0117.348 29.74 12.271 12.271 0 014.957 17.348z"/></svg>