<svg data-name="Group 15" xmlns="http://www.w3.org/2000/svg" width="68.52" height="48.27" viewBox="0 0 68.52 48.27"><defs><clipPath id="a"><path data-name="Rectangle 12" fill="#fff" d="M0 0h68.52v48.27H0z"/></clipPath></defs><g data-name="Group 14" clip-path="url(#a)"><path data-name="Path 30" d="M67.088 7.538a8.61 8.61 0 00-6.058-6.1C55.687 0 34.26 0 34.26 0S12.833 0 7.49 1.441a8.61 8.61 0 00-6.058 6.1C0 12.916 0 24.138 0 24.138s0 11.221 1.432 16.6a8.61 8.61 0 006.058 6.1c5.344 1.441 26.77 1.441 26.77 1.441s21.427 0 26.77-1.441a8.61 8.61 0 006.058-6.1c1.432-5.378 1.432-16.6 1.432-16.6s0-11.221-1.432-16.6M44.2 24.544l-16.5 9.485a.468.468 0 01-.7-.406v-18.97a.468.468 0 01.7-.406l16.5 9.485a.468.468 0 010 .812" fill="#fff"/></g></svg>